# xmcd
#
# Track frame offsets:
#	150
#	18076
#	32928
#	50222
#	67473
#	84951
#	99821
#	118742
#	135638
#	147914
#	163244
#	178408
#	198591
#	214730
#	232519
#	260958
#	277876
#	297884
#	315733
#	330415
#
# Disc length: 4613
#
# Revision: 1
# Processed by: cddbd v1.5.1PL0 Copyright (c) Steve Scherf et al.
# Submitted via: ExactAudioCopy v0.90b3
# Normalized: r0:DSETVAR1
#
DISCID=30120314
DTITLE=Various Artist - CoolSweat Classics
DYEAR=2002
DGENRE=R&B
TTITLE0=Brandy and Monica - This boy is mine
TTITLE1=Anastacia - Paid My Dues
TTITLE2=Spooks - Things I've Never Seen
TTITLE3=Angie Stone - Life Story
TTITLE4=Chaka Khan and De La Soul - All Good
TTITLE5=Lil' Bow Wow - Bow Wow (That's My Name)
TTITLE6=En Voque - Riddle
TTITLE7=Mya - Case Of The Ex
TTITLE8=702 - Where My Girl's At
TTITLE9=Melanie B and Missy Elliott - I Want You Back
TTITLE10=Missy Elliott - Get Ur Freak On
TTITLE11=Timbaland - Here We Come
TTITLE12=Lucy Pearl - Don't Mess With My Man
TTITLE13=India Arie - Video
TTITLE14=All Saints - Never Ever
TTITLE15=Sugababes - Run For Cover
TTITLE16=MC Lyte - Cold Rock A Party (Bad Boy Rmx ft. Missy Elliott)
TTITLE17=Sisqo - Dance For Me
TTITLE18=Pink - There You Go
TTITLE19=Mis-Teeq - All I Want
EXTD=TMF CoolSweat Classics
EXTT0=
EXTT1=
EXTT2=
EXTT3=
EXTT4=
EXTT5=
EXTT6=
EXTT7=
EXTT8=
EXTT9=
EXTT10=
EXTT11=
EXTT12=
EXTT13=
EXTT14=
EXTT15=
EXTT16=
EXTT17=
EXTT18=
EXTT19=
PLAYORDER=
